{"title":"Seven Years in Tibet-720p MP4 AAC x264 BRRip 1997-CC","uid":7440702,"size":3083031286,"categoryP":"video","categoryS":"hd___movies","magnet":"?xt=urn:btih:ccc9fc381ce384da5a3833cd959135bdc8b10ebb&amp;dn=Seven+Years+in+Tibet-720p+MP4+AAC+x264+BRRip+1997-CC&amp;tr=udp%3A%2F%2Ftracker.openbittorrent.com%3A80&amp;tr=udp%3A%2F%2Fopen.demonii.com%3A1337&amp;tr=udp%3A%2F%2Ftracker.coppersurfer.tk%3A6969&amp;tr=udp%3A%2F%2Fexodus.desync.com%3A6969","seeders":4,"leechers":0,"uploader":"Caveman44","files":-1,"time":1342210155,"description":" &lt;a href=&quot;http://www.imdb.com/title/tt0120102/&quot; rel=&quot;nofollow&quot; target=&quot;_NEW&quot;&gt;http://www.imdb.com/title/tt0120102/&lt;/a&gt;\n\nSource: Seven.Years.in.Tibet.1997.720p.BluRay.DTS.x264-ESiR\n\nSubs: Arabic, Bosnian, Brazilian, Bulgarian, Croatian, Czech, Danish, Dutch, English, Farsi-Persian, Finnish, French, Greek, Hebrew, Hungarian, Indonesian, Italian, Norwegian, Polish, Portuguese, Romanian, Serbian (Cyrilic), Serbian (Latin), Slovakian, Slovenian, Spanish, Swedish, Turkish and Vietnamese.\n\nSample and Screens included.\n\nGeneral\nComplete name                    : Seven Years in Tibet-720p MP4 AAC x264 BRRip 1997-CC.mp4\nFormat                           : MPEG-4\nFormat profile                   : Base Media\nCodec ID                         : isom\nFile size                        : 2.83 GiB\nDuration                         : 2h 16mn\nOverall bit rate                 : 2 980 Kbps\nEncoded date                     : UTC 2012-07-09 14:54:30\n\nVideo\nID                               : 1\nFormat                           : AVC\nFormat/Info                      : Advanced Video Codec\nFormat profile                   : &lt;a class=&quot;__cf_email__&quot; href=&quot;/cdn-cgi/l/email-protection&quot; data-cfemail=&quot;337b5a545b737f001d02&quot;&gt;[email&amp;#160;protected]&lt;/a&gt;&lt;script cf-hash='f9e31' type=&quot;text/javascript&quot;&gt;\n/* &lt;![CDATA[ */!function(){try{var t=&quot;currentScript&quot;in document?document.currentScript:function(){for(var t=document.getElementsByTagName(&quot;script&quot;),e=t.length;e--;)if(t[e].getAttribute(&quot;cf-hash&quot;))return t[e]}();if(t&amp;&amp;t.previousSibling){var e,r,n,i,c=t.previousSibling,a=c.getAttribute(&quot;data-cfemail&quot;);if(a){for(e=&quot;&quot;,r=parseInt(a.substr(0,2),16),n=2;a.length-n;n+=2)i=parseInt(a.substr(n,2),16)^r,e+=String.fromCharCode(i);e=document.createTextNode(e),c.parentNode.replaceChild(e,c)}}}catch(u){}}();/* ]]&gt; */&lt;/script&gt;\nFormat settings, CABAC           : Yes\nFormat settings, ReFrames        : 5 frames\nCodec ID                         : avc1\nCodec ID/Info                    : Advanced Video Coding\nDuration                         : 2h 16mn\nBit rate mode                    : Variable\nBit rate                         : 2 593 Kbps\nNominal bit rate                 : 2 580 Kbps\nMaximum bit rate                 : 14.0 Mbps\nWidth                            : 1 280 pixels\nHeight                           : 528 pixels\nDisplay aspect ratio             : 2.40:1\nFrame rate mode                  : Variable\nFrame rate                       : 23.976 fps\nMinimum frame rate               : 15.873 fps\nMaximum frame rate               : 24.390 fps\nResolution                       : 24 bits\nColorimetry                      : 4:2:0\nScan type                        : Progressive\nBits/(Pixel*Frame)               : 0.160\nStream size                      : 2.46 GiB (87%)\nWriting library                  : x264 core 112\n\nAudio\nID                               : 2\nFormat                           : AAC\nFormat/Info                      : Advanced Audio Codec\nFormat version                   : Version 4\nFormat profile                   : LC\nFormat settings, SBR             : No\nCodec ID                         : 40\nDuration                         : 2h 16mn\nBit rate mode                    : Variable\nBit rate                         : 384 Kbps\nMaximum bit rate                 : 811 Kbps\nChannel(s)                       : 6 channels\nChannel positions                : Front: L C R, Rear: L R, LFE\nSampling rate                    : 48.0 KHz\nResolution                       : 16 bits\nStream size                      : 374 MiB (13%)\nLanguage                         : English\n\nEnjoy...\n\nRequested by cmptrluvr's. ( more coming up )","torrent":{"xt":"urn:btih:ccc9fc381ce384da5a3833cd959135bdc8b10ebb","amp;dn":"Seven+Years+in+Tibet-720p+MP4+AAC+x264+BRRip+1997-CC","amp;tr":["udp%3A%2F%2Ftracker.openbittorrent.com%3A80","udp%3A%2F%2Fopen.demonii.com%3A1337","udp%3A%2F%2Ftracker.coppersurfer.tk%3A6969","udp%3A%2F%2Fexodus.desync.com%3A6969"],"infoHash":"ccc9fc381ce384da5a3833cd959135bdc8b10ebb","infoHashBuffer":{"type":"Buffer","data":[204,201,252,56,28,227,132,218,90,56,51,205,149,145,53,189,200,177,14,187]},"announce":[],"urlList":[]}}